<?xml version="1.0" standalone="no"?>
<!DOCTYPE svg PUBLIC "-//W3C//DTD SVG 20010904//EN"
 "http://www.w3.org/TR/2001/REC-SVG-20010904/DTD/svg10.dtd">
<svg version="1.0" xmlns="http://www.w3.org/2000/svg"
 width="2148.000000pt" height="2104.000000pt" viewBox="0 0 2148.000000 2104.000000"
 preserveAspectRatio="xMidYMid meet">

<g transform="translate(0.000000,2104.000000) scale(0.100000,-0.100000)"
fill="#000000" stroke="none">
<path d="M423 20606 l-102 -111 22 -21 c12 -12 3255 -2997 7207 -6635 3952
-3637 7379 -6792 7615 -7010 237 -219 801 -762 1255 -1207 l825 -809 3 3484
c1 1915 1 5051 0 6967 l-3 3483 -278 -350 -277 -350 0 -2794 0 -2793 -100 0
-100 0 0 2701 0 2701 -245 -238 -245 -238 0 -1928 0 -1928 -85 0 -85 0 0 1815
c0 998 -2 1815 -6 1815 -3 0 -111 -97 -240 -216 l-234 -216 0 -4835 0 -4835
-38 34 c-21 18 -1991 1833 -4378 4033 -4156 3832 -10332 9523 -10384 9570
l-25 23 -102 -112z"/>
<path d="M3020 9637 c0 -4189 2 -7617 4 -7617 2 0 131 131 285 291 l281 290 0
2790 0 2789 100 0 100 0 2 -2694 3 -2694 238 231 238 232 2 1930 2 1930 85 0
85 0 3 -1818 2 -1818 237 218 236 218 -6 2095 c-4 1152 -10 3168 -13 4480 l-6
2385 33 -31 c19 -17 2061 -1831 4539 -4030 2478 -2199 5241 -4652 6140 -5451
l1635 -1451 3 899 c1 494 5 899 10 899 4 0 835 -763 1847 -1696 l1840 -1695
78 83 c42 46 90 99 106 119 l30 35 -4947 4556 c-2721 2505 -4974 4580 -5007
4609 -32 30 -910 837 -1950 1794 -1039 957 -2855 2629 -4035 3714 -1180 1086
-2157 1986 -2172 1999 l-28 26 0 -7617z"/>
</g>
</svg>
