<svg width="24" height="24" version="1.1" xmlns="http://www.w3.org/2000/svg" desc="Created with imagetracer.js version 1.2.6" ><path fill="rgb(0,0,0)" stroke="rgb(0,0,0)" stroke-width="1" opacity="0" d="M 1.5 0 L 24 0 L 24 21.5 L 23.5 22 L 21.5 20 L 20 19.5 L 20 2.5 L 19.5 2 L 17 4.5 L 16.5 15 L 1 0.5 L 1.5 0 Z " /><path fill="rgb(0,0,0)" stroke="rgb(0,0,0)" stroke-width="1" opacity="0" d="M 0.5 2 L 3 4.5 L 3.5 22 L 6 19.5 L 6.5 11 L 18.5 22 Q 22.25 21.25 23 23.5 L 0 24 L 0.5 2 Z " /><path fill="rgb(193,42,226)" stroke="rgb(193,42,226)" stroke-width="1" opacity="0.13333333333333333" d="M 0.5 0 L 3.5 4 L 5 3.5 L 3.5 5 L 0 1.5 L 0.5 0 Z " /><path fill="rgb(193,42,226)" stroke="rgb(193,42,226)" stroke-width="1" opacity="0.13333333333333333" d="M 19.5 2 L 19.5 3 L 19.5 2 Z " /><path fill="rgb(161,38,194)" stroke="rgb(161,38,194)" stroke-width="1" opacity="0.7607843137254902" d="M 18.5 4 L 18.5 5 L 18.5 4 Z " /><path fill="rgb(161,38,194)" stroke="rgb(161,38,194)" stroke-width="1" opacity="0.7607843137254902" d="M 3.5 5 L 4 10.5 L 3 10.5 L 3.5 5 Z " /><path fill="rgb(161,38,194)" stroke="rgb(161,38,194)" stroke-width="1" opacity="0.7607843137254902" d="M 7.5 8 Q 10 9 8.5 10 Q 6 9 7.5 8 Z " /><path fill="rgb(161,38,194)" stroke="rgb(161,38,194)" stroke-width="1" opacity="0.7607843137254902" d="M 5.5 9 L 5.5 10 L 5.5 9 Z " /><path fill="rgb(185,40,221)" stroke="rgb(185,40,221)" stroke-width="1" opacity="0.5098039215686274" d="M 1.5 1 L 4 3.5 L 3.5 4 L 1 1.5 L 1.5 1 Z " /><path fill="rgb(185,40,221)" stroke="rgb(185,40,221)" stroke-width="1" opacity="0.5098039215686274" d="M 19.5 3 L 20 4.5 L 19 4.5 L 19.5 3 Z " /><path fill="rgb(185,40,221)" stroke="rgb(185,40,221)" stroke-width="1" opacity="0.5098039215686274" d="M 4.5 5 L 7 7.5 L 6.5 8 L 4 5.5 L 4.5 5 Z " /><path fill="rgb(172,39,206)" stroke="rgb(172,39,206)" stroke-width="1" opacity="1" d="M 4.5 6 L 8 9.5 L 7.5 10 L 5.5 9 L 4 9.5 L 4.5 6 Z " /><path fill="rgb(140,35,170)" stroke="rgb(140,35,170)" stroke-width="1" opacity="0.403921568627451" d="M 5.5 5 L 9 8.5 L 8.5 9 L 5 5.5 L 5.5 5 Z " /><path fill="rgb(140,35,170)" stroke="rgb(140,35,170)" stroke-width="1" opacity="0.403921568627451" d="M 17.5 5 L 18 7.5 L 17 7.5 L 17.5 5 Z " /><path fill="rgb(140,35,170)" stroke="rgb(140,35,170)" stroke-width="1" opacity="0.403921568627451" d="M 19.5 7 L 20 9.5 L 19 9.5 L 19.5 7 Z " /><path fill="rgb(123,34,149)" stroke="rgb(123,34,149)" stroke-width="1" opacity="0.7411764705882353" d="M 17 8 Q 19.67 6.88 19 9.5 L 17.5 13 L 17 8 Z " /><path fill="rgb(123,34,149)" stroke="rgb(123,34,149)" stroke-width="1" opacity="0.7411764705882353" d="M 3.5 13 L 5 16.5 L 5 19.5 L 4 19.5 L 3 16.5 L 3.5 13 Z " /><path fill="rgb(123,34,149)" stroke="rgb(123,34,149)" stroke-width="1" opacity="0.7411764705882353" d="M 11.5 14 Q 14 15 12.5 16 Q 10 15 11.5 14 Z " /><path fill="rgb(121,34,147)" stroke="rgb(121,34,147)" stroke-width="1" opacity="0.9921568627450981" d="M 18.5 10 L 19 11.5 L 18 11.5 L 18.5 10 Z " /><path fill="rgb(121,34,147)" stroke="rgb(121,34,147)" stroke-width="1" opacity="0.9921568627450981" d="M 4.5 13 L 5 15.5 L 4 15.5 L 4.5 13 Z " /><path fill="rgb(121,34,147)" stroke="rgb(121,34,147)" stroke-width="1" opacity="0.9921568627450981" d="M 11.5 13 L 15 15.5 L 13.5 16 L 11 13.5 L 11.5 13 Z " /><path fill="rgb(155,36,187)" stroke="rgb(155,36,187)" stroke-width="1" opacity="0.25882352941176473" d="M 4.5 4 L 8 6.5 L 7.5 7 L 5.5 5 Q 3.12 4.87 4.5 4 Z " /><path fill="rgb(155,36,187)" stroke="rgb(155,36,187)" stroke-width="1" opacity="0.25882352941176473" d="M 19.5 5 L 20 6.5 L 19 6.5 L 19.5 5 Z " /><path fill="rgb(155,36,187)" stroke="rgb(155,36,187)" stroke-width="1" opacity="0.25882352941176473" d="M 5 10 L 8 11.5 L 6 11.5 L 5.5 13 L 5 10 Z " /><path fill="rgb(155,36,187)" stroke="rgb(155,36,187)" stroke-width="1" opacity="0.25882352941176473" d="M 10.5 14 L 10.5 15 L 10.5 14 Z " /><path fill="rgb(147,37,178)" stroke="rgb(147,37,178)" stroke-width="1" opacity="0.9921568627450981" d="M 4.5 10 L 5 12.5 L 4 12.5 L 4.5 10 Z " /><path fill="rgb(147,37,178)" stroke="rgb(147,37,178)" stroke-width="1" opacity="0.9921568627450981" d="M 7.5 10 L 11 12.5 L 9.5 12 Q 5.69 11.31 7.5 10 Z " /><path fill="rgb(149,37,180)" stroke="rgb(149,37,180)" stroke-width="1" opacity="0.8352941176470589" d="M 18.5 5 L 19 6.5 L 18 6.5 L 18.5 5 Z " /><path fill="rgb(149,37,180)" stroke="rgb(149,37,180)" stroke-width="1" opacity="0.8352941176470589" d="M 9.5 10 Q 12 11 10.5 12 Q 8 11 9.5 10 Z " /><path fill="rgb(149,37,180)" stroke="rgb(149,37,180)" stroke-width="1" opacity="0.8352941176470589" d="M 3.5 11 L 3.5 12 L 3.5 11 Z " /><path fill="rgb(134,36,162)" stroke="rgb(134,36,162)" stroke-width="1" opacity="0.8705882352941177" d="M 18.5 7 L 18.5 8 L 18.5 7 Z " /><path fill="rgb(134,36,162)" stroke="rgb(134,36,162)" stroke-width="1" opacity="0.8705882352941177" d="M 3.5 12 L 3.5 13 L 3.5 12 Z " /><path fill="rgb(134,36,162)" stroke="rgb(134,36,162)" stroke-width="1" opacity="0.8705882352941177" d="M 9.5 12 Q 10.5 14 11.5 12 L 13 13.5 L 11.5 13 L 10.5 14 Q 8 13 9.5 12 Z " /><path fill="rgb(108,33,133)" stroke="rgb(108,33,133)" stroke-width="1" opacity="0.32941176470588235" d="M 12.5 11 L 12.5 12 L 12.5 11 Z " /><path fill="rgb(108,33,133)" stroke="rgb(108,33,133)" stroke-width="1" opacity="0.32941176470588235" d="M 19.5 11 L 19.5 12 L 19.5 11 Z " /><path fill="rgb(108,33,133)" stroke="rgb(108,33,133)" stroke-width="1" opacity="0.32941176470588235" d="M 14.5 14 Q 17 15 15.5 16 Q 13 15 14.5 14 Z " /><path fill="rgb(108,33,133)" stroke="rgb(108,33,133)" stroke-width="1" opacity="0.32941176470588235" d="M 5.5 18 L 6 19.5 L 5 19.5 L 5.5 18 Z " /><path fill="rgb(108,33,133)" stroke="rgb(108,33,133)" stroke-width="1" opacity="0.32941176470588235" d="M 16.5 19 L 16.5 20 L 16.5 19 Z " /><path fill="rgb(97,32,120)" stroke="rgb(97,32,120)" stroke-width="1" opacity="0.996078431372549" d="M 18.5 12 L 19 14.5 L 18 14.5 L 18.5 12 Z " /><path fill="rgb(97,32,120)" stroke="rgb(97,32,120)" stroke-width="1" opacity="0.996078431372549" d="M 14.5 16 L 19 19.5 L 17.5 19 L 14 16.5 L 14.5 16 Z " /><path fill="rgb(132,35,160)" stroke="rgb(132,35,160)" stroke-width="1" opacity="0.24313725490196078" d="M 18.5 3 L 18.5 4 L 18.5 3 Z " /><path fill="rgb(132,35,160)" stroke="rgb(132,35,160)" stroke-width="1" opacity="0.24313725490196078" d="M 8.5 7 L 12 11.5 L 11.5 12 L 9 9.5 L 8.5 7 Z " /><path fill="rgb(132,35,160)" stroke="rgb(132,35,160)" stroke-width="1" opacity="0.24313725490196078" d="M 8.5 12 Q 11 13 9.5 14 Q 7 13 8.5 12 Z " /><path fill="rgb(132,35,160)" stroke="rgb(132,35,160)" stroke-width="1" opacity="0.24313725490196078" d="M 5.5 13 L 6 14.5 L 5 14.5 L 5.5 13 Z " /><path fill="rgb(118,33,145)" stroke="rgb(118,33,145)" stroke-width="1" opacity="0.3137254901960784" d="M 10.5 9 Q 13 10 11.5 11 Q 9 10 10.5 9 Z " /><path fill="rgb(118,33,145)" stroke="rgb(118,33,145)" stroke-width="1" opacity="0.3137254901960784" d="M 19.5 10 L 19.5 11 L 19.5 10 Z " /><path fill="rgb(118,33,145)" stroke="rgb(118,33,145)" stroke-width="1" opacity="0.3137254901960784" d="M 12.5 12 Q 15 13 13.5 14 Q 11 13 12.5 12 Z " /><path fill="rgb(118,33,145)" stroke="rgb(118,33,145)" stroke-width="1" opacity="0.3137254901960784" d="M 5.5 15 L 6 17.5 L 5 17.5 L 5.5 15 Z " /><path fill="rgb(118,33,145)" stroke="rgb(118,33,145)" stroke-width="1" opacity="0.3137254901960784" d="M 4.5 20 Q 6 21 3.5 22 Q 2 21 4.5 20 Z " /><path fill="rgb(108,33,131)" stroke="rgb(108,33,131)" stroke-width="1" opacity="0.6078431372549019" d="M 13.5 16 L 13.5 17 L 13.5 16 Z " /><path fill="rgb(108,33,131)" stroke="rgb(108,33,131)" stroke-width="1" opacity="0.6078431372549019" d="M 3.5 17 L 4 20.5 L 3 20.5 L 3.5 17 Z " /><path fill="rgb(98,32,121)" stroke="rgb(98,32,121)" stroke-width="1" opacity="0.42745098039215684" d="M 13.5 12 Q 16 13 14.5 14 Q 12 13 13.5 12 Z " /><path fill="rgb(98,32,121)" stroke="rgb(98,32,121)" stroke-width="1" opacity="0.42745098039215684" d="M 19.5 12 L 20 13.5 L 19 13.5 L 19.5 12 Z " /><path fill="rgb(98,32,121)" stroke="rgb(98,32,121)" stroke-width="1" opacity="0.42745098039215684" d="M 16.5 16 Q 19 17 17.5 18 Q 15 17 16.5 16 Z " /><path fill="rgb(98,32,121)" stroke="rgb(98,32,121)" stroke-width="1" opacity="0.42745098039215684" d="M 14.5 17 Q 17 18 15.5 19 Q 13 18 14.5 17 Z " /><path fill="rgb(79,31,99)" stroke="rgb(79,31,99)" stroke-width="1" opacity="0.9058823529411765" d="M 17.5 15 Q 19.75 14.25 19 16.5 L 18.5 17 Q 16 16 17.5 15 Z " /><path fill="rgb(79,31,99)" stroke="rgb(79,31,99)" stroke-width="1" opacity="0.9058823529411765" d="M 17.5 19 Q 20 20 18.5 21 Q 16 20 17.5 19 Z " /><path fill="rgb(83,32,103)" stroke="rgb(83,32,103)" stroke-width="1" opacity="0.611764705882353" d="M 17.5 13 L 18 14.5 L 17 14.5 L 17.5 13 Z " /><path fill="rgb(83,32,103)" stroke="rgb(83,32,103)" stroke-width="1" opacity="0.611764705882353" d="M 17.5 16 L 20 19.5 Q 19 21 18 18.5 L 17.5 16 Z " /><path fill="rgb(111,28,137)" stroke="rgb(111,28,137)" stroke-width="1" opacity="0.10980392156862745" d="M 17.5 4 L 17.5 5 L 17.5 4 Z " /><path fill="rgb(111,28,137)" stroke="rgb(111,28,137)" stroke-width="1" opacity="0.10980392156862745" d="M 11.5 15 L 11.5 16 L 11.5 15 Z " /><path fill="rgb(111,28,137)" stroke="rgb(111,28,137)" stroke-width="1" opacity="0.10980392156862745" d="M 20.5 21 L 20.5 22 L 20.5 21 Z " /><path fill="rgb(75,31,97)" stroke="rgb(75,31,97)" stroke-width="1" opacity="0.1411764705882353" d="M 19.5 18 L 19.5 19 L 19.5 18 Z " /><path fill="rgb(75,31,97)" stroke="rgb(75,31,97)" stroke-width="1" opacity="0.1411764705882353" d="M 17.5 20 L 20 21.5 L 18.5 22 Q 16 21 17.5 20 Z " /><path fill="rgb(75,31,97)" stroke="rgb(75,31,97)" stroke-width="1" opacity="0.1411764705882353" d="M 21.5 20 L 24 23.5 L 23 23.5 L 21 20.5 L 21.5 20 Z " /><path fill="rgb(77,30,96)" stroke="rgb(77,30,96)" stroke-width="1" opacity="0.403921568627451" d="M 15.5 14 Q 18 15 16.5 16 Q 14 15 15.5 14 Z " /><path fill="rgb(77,30,96)" stroke="rgb(77,30,96)" stroke-width="1" opacity="0.403921568627451" d="M 19.5 14 L 20 17.5 L 19 17.5 L 19.5 14 Z " /><path fill="rgb(77,30,96)" stroke="rgb(77,30,96)" stroke-width="1" opacity="0.403921568627451" d="M 19.5 20 L 23 22.5 L 22.5 23 L 20.5 21 Q 18.13 20.87 19.5 20 Z " /></svg>